<?xml version="1.0" encoding="UTF-8" standalone="no"?>
<svg
   xmlns:dc="http://purl.org/dc/elements/1.1/"
   xmlns:cc="http://creativecommons.org/ns#"
   xmlns:rdf="http://www.w3.org/1999/02/22-rdf-syntax-ns#"
   xmlns:svg="http://www.w3.org/2000/svg"
   xmlns="http://www.w3.org/2000/svg"
   xmlns:xlink="http://www.w3.org/1999/xlink"
   xmlns:sodipodi="http://sodipodi.sourceforge.net/DTD/sodipodi-0.dtd"
   xmlns:inkscape="http://www.inkscape.org/namespaces/inkscape"
   width="162.0049"
   viewBox="0 0 162.0049 162.0049"
   version="1.1"
   height="162.0049"
   id="svg2"
   inkscape:version="0.92.4 (5da689c313, 2019-01-14)"
   sodipodi:docname="Apple_Logo.svg">
  <metadata
     id="metadata10">
    <rdf:RDF>
      <cc:Work
         rdf:about="">
        <dc:format>image/svg+xml</dc:format>
        <dc:type
           rdf:resource="http://purl.org/dc/dcmitype/StillImage" />
        <dc:title></dc:title>
      </cc:Work>
    </rdf:RDF>
  </metadata>
  <defs
     id="defs8">
    <linearGradient
       inkscape:collect="always"
       id="linearGradient3755">
      <stop
         style="stop-color:#000000;stop-opacity:1;"
         offset="0"
         id="stop3757" />
      <stop
         style="stop-color:#000000;stop-opacity:0;"
         offset="1"
         id="stop3759" />
    </linearGradient>
    <linearGradient
       inkscape:collect="always"
       xlink:href="#linearGradient3755"
       id="linearGradient3761"
       x1="75.074432"
       y1="108.58527"
       x2="74.617279"
       y2="-24.401249"
       gradientUnits="userSpaceOnUse"
       gradientTransform="translate(-3.8117878,-3.9989962)" />
  </defs>
  <sodipodi:namedview
     pagecolor="#ffffff"
     bordercolor="#666666"
     borderopacity="1"
     objecttolerance="10"
     gridtolerance="10"
     guidetolerance="10"
     inkscape:pageopacity="0"
     inkscape:pageshadow="2"
     inkscape:window-width="3840"
     inkscape:window-height="1537"
     id="namedview6"
     showgrid="false"
     fit-margin-top="0"
     fit-margin-left="0"
     fit-margin-right="0"
     fit-margin-bottom="0"
     inkscape:zoom="2.1587554"
     inkscape:cx="151.57282"
     inkscape:cy="121.55227"
     inkscape:window-x="-8"
     inkscape:window-y="-8"
     inkscape:window-maximized="1"
     inkscape:current-layer="svg2"
     inkscape:snap-bbox="true"
     inkscape:snap-global="true"
     inkscape:pagecheckerboard="true" />
  <path
     d="m 146.55821,126.251 c -2.45,5.66 -5.35,10.87 -8.71,15.66 -4.58,6.53 -8.33,11.05 -11.22,13.56 -4.48,4.12 -9.28,6.23 -14.42,6.35 -3.69,0 -8.14,-1.05 -13.319999,-3.18 -5.197,-2.12 -9.973,-3.17 -14.34,-3.17 -4.58,0 -9.492,1.05 -14.746,3.17 -5.262,2.13 -9.501,3.24 -12.742,3.35 -4.929,0.21 -9.842,-1.96 -14.746,-6.52 -3.13,-2.73 -7.045,-7.41 -11.735,-14.04 -5.032,-7.08 -9.169,-15.29 -12.41,-24.65 -3.471,-10.11 -5.211,-19.899996 -5.211,-29.377996 0,-10.857 2.346,-20.221 7.045,-28.068 3.693,-6.303 8.606,-11.275 14.755,-14.925 6.149,-3.65 12.793,-5.51 19.948,-5.629 3.915,0 9.049,1.211 15.429,3.591 6.362,2.388 10.447,3.599 12.238,3.599 1.339,0 5.877,-1.416 13.57,-4.239 7.274999,-2.618 13.414999,-3.702 18.444999,-3.275 13.63,1.1 23.87,6.473 30.68,16.153 -12.19,7.386 -18.22,17.731 -18.1,31.002 0.11,10.337 3.86,18.938996 11.23,25.768996 3.34,3.17 7.07,5.62 11.22,7.36 -0.9,2.61 -1.85,5.11 -2.86,7.51 z m -31.26,-123.0099962 c 0,8.1021002 -2.96,15.6670002 -8.86,22.6690002 -7.119999,8.324 -15.731999,13.134 -25.070999,12.375 -0.119,-0.972 -0.188,-1.995 -0.188,-3.07 0,-7.778 3.386,-16.102 9.399,-22.908 3.002,-3.4460002 6.82,-6.3113002 11.449999,-8.5970002 4.62,-2.2516 8.99,-3.49679994 13.1,-3.7099999443337 C 115.24821,1.0831038 115.29821,2.1663038 115.29821,3.2409038 Z"
     id="path4"
     style="fill:url(#linearGradient3761);fill-opacity:1"
     inkscape:connector-curvature="0" />
</svg>
